<svg width="100" height="111" viewBox="0 0 100 111" fill="none" xmlns="http://www.w3.org/2000/svg">
    <path d="M40.4025 15.6924C40.4025 10.4027 44.706 6.09917 49.9958 6.09917C52.5586 6.09917 54.9682 7.0972 56.7796 8.90858C58.591 10.72 59.589 13.1296 59.589 15.6924V24.3476L65.6882 20.825V15.6924C65.6882 11.4999 64.0556 7.55888 61.0929 4.59525C58.1293 1.63162 54.1892 0 49.9967 0C41.3436 0 34.3043 7.03924 34.3043 15.6924V50.0242L59.59 64.6243V94.905C59.59 100.195 55.2865 104.498 49.9967 104.498C47.4329 104.498 45.0233 103.5 43.2119 101.689C41.4005 99.8774 40.4025 97.4678 40.4025 94.905V86.2518L34.3033 89.7714V94.905C34.3033 99.0985 35.9369 103.04 38.9015 106.001C41.8652 108.965 45.8052 110.596 49.9958 110.596C58.6489 110.596 65.6882 103.557 65.6882 94.904V60.5771L40.4025 45.978V15.6924Z"
          fill="#3BC199"/>
    <path d="M92.1458 61.5137L68.9682 48.1317L85.9386 38.3331C86.9494 37.7476 87.5781 36.6602 87.5781 35.4952C87.5781 34.9235 87.4258 34.3577 87.137 33.8587C86.6989 33.0994 85.9926 32.5571 85.1479 32.3312C84.3031 32.1043 83.42 32.2192 82.6616 32.6573L56.3151 47.8694L89.0958 66.7946C91.3148 68.0745 92.9032 70.1453 93.5663 72.6236C94.2293 75.1 93.8875 77.6855 92.6026 79.9045C90.8963 82.8593 87.7127 84.6952 84.2942 84.6952C82.6184 84.6952 80.9642 84.2522 79.5094 83.4143L72.0075 79.0833V86.1265L76.4652 88.6972C78.8444 90.0695 81.5516 90.7944 84.2952 90.7944C89.8836 90.7944 95.0908 87.7925 97.8845 82.9595C98.1468 82.5066 98.3874 82.0401 98.6006 81.5705V81.5695C98.8138 81.1019 99.0053 80.6196 99.1704 80.1353C99.2538 79.8917 99.3295 79.6481 99.4002 79.4025C99.8226 77.9301 100.024 76.4065 99.9984 74.8751C99.9778 73.5892 99.7971 72.3004 99.4611 71.0451C98.3757 66.993 95.7775 63.608 92.1458 61.5137Z"
          fill="#3BC199"/>
    <path d="M53.2743 15.693C53.2743 14.8178 52.9335 13.9946 52.3146 13.3757C51.6957 12.7569 50.8726 12.416 49.9973 12.416C48.1899 12.416 46.7203 13.8865 46.7203 15.693V42.3303L49.9973 44.2203L79.5 27.189C80.9617 26.3472 82.6189 25.9012 84.2927 25.9012C87.7132 25.9012 90.8988 27.741 92.6051 30.7037C93.4469 32.1575 93.8919 33.8147 93.8919 35.4954C93.8919 38.9089 92.0569 42.0897 89.1031 43.7989L81.5983 48.1328L87.6974 51.6534L92.1581 49.0788C96.9891 46.2802 99.9901 41.0749 99.9901 35.4964C99.9901 32.744 99.2632 30.0328 97.8869 27.6556C95.0933 22.8128 89.8841 19.804 84.2908 19.804C81.5472 19.804 78.835 20.5319 76.449 21.9081L53.2723 35.2881V15.693H53.2743Z"
          fill="url(#paint0_linear)"/>
    <path d="M1.98514 43.137C2.17571 43.4799 2.39182 43.8325 2.64722 44.2146C3.26608 45.1439 3.97825 46.0005 4.7641 46.7598C5.68747 47.6527 6.72577 48.4346 7.8515 49.0839L31.0282 62.466L14.0587 72.2645C13.0479 72.85 12.4202 73.9374 12.4202 75.1024C12.4202 75.6741 12.5725 76.2399 12.8613 76.739C13.4448 77.7497 14.5351 78.3784 15.7061 78.3784C16.2768 78.3784 16.8406 78.2271 17.3367 77.9413L43.6793 62.7312L10.9016 43.803C8.68057 42.5201 7.09218 40.4494 6.4301 37.974C5.76999 35.4966 6.11379 32.9112 7.39669 30.6931C9.10493 27.7374 12.2876 25.9014 15.7031 25.9014C17.3809 25.9014 19.0371 26.3454 20.4919 27.1863L27.9899 31.5173V24.4741L23.538 21.8995C21.1589 20.5272 18.4497 19.8022 15.7031 19.8022C10.1138 19.8022 4.90752 22.8052 2.11677 27.6372C0.015607 31.2678 -0.544309 35.4986 0.540162 39.5506C0.876113 40.808 1.36236 42.0143 1.98514 43.137Z"
          fill="#3BC199"/>
    <path d="M15.7047 32.218C14.5357 32.218 13.4473 32.8457 12.8638 33.8575C12.4257 34.6158 12.3079 35.498 12.5348 36.3427C12.7607 37.1885 13.3029 37.8958 14.0623 38.3339L27.9924 46.378V38.8083L17.3383 32.6561C16.8393 32.3693 16.2744 32.218 15.7047 32.218Z"
          fill="url(#paint1_linear)"/>
    <path d="M46.7216 94.9055C46.7216 95.7807 47.0625 96.6039 47.6814 97.2228C48.3002 97.8416 49.1234 98.1825 49.9996 98.1825C51.8061 98.1825 53.2766 96.712 53.2766 94.9055V68.2701L50.0006 66.3772L49.9937 66.3802L20.4988 83.4115C19.0401 84.2523 17.3829 84.6963 15.7061 84.6963C12.2857 84.6963 9.09912 82.8584 7.39088 79.8987C6.54904 78.438 6.10405 76.7799 6.10405 75.1031C6.10405 71.6915 7.93999 68.5098 10.8958 66.8006L18.3977 62.4686L12.2985 58.946L7.8398 61.5197C3.00683 64.3193 0.00488281 69.5246 0.00488281 75.1031C0.00488281 77.8536 0.731796 80.5647 2.10801 82.9449C4.90367 87.7877 10.1138 90.7955 15.7061 90.7955C18.4507 90.7955 21.1619 90.0686 23.5479 88.6924L46.7216 75.3113V94.9055Z"
          fill="url(#paint2_linear)"/>
    <path d="M84.2952 78.3795C85.4631 78.3795 86.5515 77.7518 87.136 76.74C87.5741 75.9817 87.691 75.0995 87.4651 74.2547C87.2392 73.409 86.6969 72.7017 85.9386 72.2646L72.0084 64.2234V71.7891L82.6626 77.9404C83.1586 78.2272 83.7235 78.3795 84.2952 78.3795Z"
          fill="url(#paint3_linear)"/>
    <defs>
        <linearGradient id="paint0_linear" x1="52.375" y1="67.9823" x2="63.323" y2="7.24388"
                        gradientUnits="userSpaceOnUse">
            <stop stop-color="#913AFF"/>
            <stop offset="1" stop-color="#8D4BF9"/>
        </linearGradient>
        <linearGradient id="paint1_linear" x1="14.0747" y1="52.2708" x2="18.8735" y2="30.7073"
                        gradientUnits="userSpaceOnUse">
            <stop stop-color="#913AFF"/>
            <stop offset="1" stop-color="#8D4BF9"/>
        </linearGradient>
        <linearGradient id="paint2_linear" x1="5.65979" y1="114.511" x2="16.6069" y2="53.7738"
                        gradientUnits="userSpaceOnUse">
            <stop stop-color="#913AFF"/>
            <stop offset="1" stop-color="#8D4BF9"/>
        </linearGradient>
        <linearGradient id="paint3_linear" x1="73.6611" y1="84.2706" x2="78.4577" y2="62.7127"
                        gradientUnits="userSpaceOnUse">
            <stop stop-color="#913AFF"/>
            <stop offset="1" stop-color="#8D4BF9"/>
        </linearGradient>
    </defs>
</svg>
