<svg width="150" height="56" viewBox="0 0 150 56" fill="none" xmlns="http://www.w3.org/2000/svg">
    <path d="M16.9702 44.3316C14.3337 44.3316 11.9641 43.7311 9.8616 42.5301C7.75905 41.2957 6.09036 39.6276 4.85553 37.5258C3.65407 35.424 3.05334 33.0387 3.05334 30.3697C3.05334 27.7341 3.63739 25.3654 4.80547 23.2636C6.00692 21.1617 7.62556 19.5104 9.66137 18.3093C11.6972 17.075 14 16.4577 16.5697 16.4577C18.8058 16.4577 20.8249 16.9415 22.627 17.909C24.4292 18.8431 25.881 20.0942 26.9824 21.6622V6.9496C26.9824 6.34908 27.1659 5.88201 27.533 5.5484C27.9001 5.18142 28.3674 4.99792 28.9347 4.99792C29.502 4.99792 29.9693 5.18142 30.3364 5.5484C30.7035 5.88201 30.8871 6.34908 30.8871 6.9496V30.5698C30.8203 33.1721 30.1695 35.5241 28.9347 37.6259C27.7333 39.6943 26.0812 41.3291 23.9787 42.5301C21.9096 43.7311 19.5734 44.3316 16.9702 44.3316ZM16.9702 40.8286C18.9059 40.8286 20.6246 40.3782 22.1264 39.4775C23.6617 38.5434 24.8631 37.2923 25.7308 35.7243C26.6319 34.1563 27.0825 32.3714 27.0825 30.3697C27.0825 28.4013 26.6319 26.6332 25.7308 25.0651C24.8631 23.4638 23.6617 22.2127 22.1264 21.312C20.6246 20.4111 18.9059 19.9608 16.9702 19.9608C15.0679 19.9608 13.3491 20.4111 11.814 21.312C10.2788 22.2127 9.06066 23.4638 8.15953 25.0651C7.25845 26.6332 6.80789 28.4013 6.80789 30.3697C6.80789 32.3714 7.25845 34.1563 8.15953 35.7243C9.06066 37.2923 10.2788 38.5434 11.814 39.4775C13.3491 40.3782 15.0679 40.8286 16.9702 40.8286ZM42.6529 44.0814C42.0522 44.0814 41.5682 43.9147 41.2012 43.581C40.8674 43.214 40.7005 42.7302 40.7005 42.1298V18.6596C40.7005 18.0591 40.8674 17.592 41.2012 17.2584C41.5682 16.8915 42.0522 16.7079 42.6529 16.7079C43.2202 16.7079 43.6708 16.8915 44.0045 17.2584C44.3717 17.592 44.5552 18.0591 44.5552 18.6596V42.1298C44.5552 42.7302 44.3717 43.214 44.0045 43.581C43.6708 43.9147 43.2202 44.0814 42.6529 44.0814ZM42.6028 11.5035C41.8686 11.5035 41.2345 11.2366 40.7005 10.7028C40.1665 10.169 39.8996 9.51848 39.8996 8.75114C39.8996 7.91709 40.1665 7.26654 40.7005 6.79947C41.2679 6.29904 41.9186 6.04882 42.6529 6.04882C43.3538 6.04882 43.9711 6.29904 44.5051 6.79947C45.0725 7.26654 45.3562 7.91709 45.3562 8.75114C45.3562 9.51848 45.0892 10.169 44.5552 10.7028C44.0212 11.2366 43.3704 11.5035 42.6028 11.5035ZM66.4348 44.3316C63.7983 44.3316 61.4621 43.7478 59.4264 42.5801C57.3906 41.3791 55.7886 39.7277 54.6205 37.6259C53.4858 35.5241 52.9184 33.122 52.9184 30.4197C52.9184 27.684 53.5192 25.2653 54.7206 23.1635C55.9221 21.0617 57.5741 19.427 59.6767 18.2593C61.7792 17.0582 64.1654 16.4577 66.8353 16.4577C69.5386 16.4577 71.9248 17.0582 73.994 18.2593C76.0965 19.427 77.7318 21.0617 78.8999 23.1635C80.1014 25.2653 80.7188 27.684 80.7521 30.4197L78.4994 31.6208C78.4994 34.0895 77.9822 36.2914 76.9475 38.2264C75.913 40.128 74.4779 41.6294 72.6423 42.7302C70.8401 43.7978 68.771 44.3316 66.4348 44.3316ZM66.9354 54.8907C64.2989 54.8907 61.9794 54.3903 59.977 53.3894C57.9746 52.4219 56.3226 51.0875 55.021 49.386C54.6539 48.9856 54.487 48.552 54.5204 48.0849C54.5871 47.6178 54.8375 47.2342 55.2713 46.9338C55.7051 46.6336 56.1891 46.5335 56.723 46.6336C57.257 46.7337 57.6742 46.9839 57.9746 47.3843C58.9425 48.5853 60.1773 49.5528 61.6791 50.2867C63.2142 51.0207 64.983 51.3877 66.9855 51.3877C68.8545 51.3877 70.5398 50.9373 72.0416 50.0365C73.5435 49.1358 74.7282 47.868 75.596 46.2333C76.497 44.5986 76.9475 42.6802 76.9475 40.4783V32.8718L78.3993 29.9693L80.7521 30.4197V40.6284C80.7521 43.3308 80.1514 45.7495 78.95 47.8847C77.7486 50.0532 76.1132 51.7547 74.0441 52.989C71.9748 54.2568 69.6053 54.8907 66.9354 54.8907ZM66.8353 40.8286C68.8044 40.8286 70.5398 40.3949 72.0416 39.5276C73.5768 38.6267 74.7783 37.3924 75.646 35.8244C76.5137 34.2564 76.9475 32.4548 76.9475 30.4197C76.9475 28.3846 76.5137 26.5831 75.646 25.0151C74.7783 23.4137 73.5768 22.1793 72.0416 21.312C70.5398 20.4111 68.8044 19.9608 66.8353 19.9608C64.8663 19.9608 63.1141 20.4111 61.579 21.312C60.0437 22.1793 58.8423 23.4137 57.9746 25.0151C57.1069 26.5831 56.673 28.3846 56.673 30.4197C56.673 32.4548 57.1069 34.2564 57.9746 35.8244C58.8423 37.3924 60.0437 38.6267 61.579 39.5276C63.1141 40.3949 64.8663 40.8286 66.8353 40.8286ZM91.0026 44.0814C90.402 44.0814 89.9181 43.9147 89.5508 43.581C89.2168 43.214 89.0502 42.7302 89.0502 42.1298V18.6596C89.0502 18.0591 89.2168 17.592 89.5508 17.2584C89.9181 16.8915 90.402 16.7079 91.0026 16.7079C91.5698 16.7079 92.0204 16.8915 92.3544 17.2584C92.7208 17.592 92.905 18.0591 92.905 18.6596V42.1298C92.905 42.7302 92.7208 43.214 92.3544 43.581C92.0204 43.9147 91.5698 44.0814 91.0026 44.0814ZM90.9526 11.5035C90.2179 11.5035 89.5841 11.2366 89.0502 10.7028C88.5163 10.169 88.2489 9.51848 88.2489 8.75114C88.2489 7.91709 88.5163 7.26654 89.0502 6.79947C89.6174 6.29904 90.2679 6.04882 91.0026 6.04882C91.703 6.04882 92.3211 6.29904 92.855 6.79947C93.4222 7.26654 93.7054 7.91709 93.7054 8.75114C93.7054 9.51848 93.4389 10.169 92.905 10.7028C92.371 11.2366 91.7197 11.5035 90.9526 11.5035Z"
          fill="white"/>
    <path fill-rule="evenodd" clip-rule="evenodd"
          d="M109.249 5.48364C104.642 5.48364 100.906 9.21778 100.906 13.8242V46.1316C100.906 50.738 104.642 54.4721 109.249 54.4721H141.568C146.176 54.4721 149.912 50.738 149.912 46.1316V13.8242C149.912 9.21778 146.176 5.48364 141.568 5.48364H109.249ZM118.032 42.8802C119.868 43.8477 121.937 44.3315 124.24 44.3315C125.941 44.3315 127.527 44.0312 128.996 43.4307C130.464 42.8302 131.715 42.0128 132.75 40.9786V41.5291C132.75 42.2631 132.984 42.8802 133.451 43.3807C133.952 43.8477 134.569 44.0813 135.303 44.0813C136.071 44.0813 136.688 43.8477 137.155 43.3807C137.622 42.8802 137.856 42.2631 137.856 41.5291V19.21C137.856 18.4426 137.622 17.8254 137.155 17.3584C136.688 16.8913 136.071 16.6577 135.303 16.6577C134.569 16.6577 133.952 16.8913 133.451 17.3584C132.984 17.8254 132.75 18.4426 132.75 19.21V33.3221C132.75 34.523 132.417 35.6073 131.748 36.5748C131.081 37.5423 130.18 38.3097 129.046 38.8768C127.944 39.4439 126.676 39.7275 125.241 39.7275C122.971 39.7275 121.069 39.077 119.534 37.7759C118.032 36.4414 117.282 34.3563 117.282 31.5205V19.21C117.282 18.4759 117.031 17.8754 116.53 17.4084C116.063 16.9079 115.462 16.6577 114.728 16.6577C113.994 16.6577 113.377 16.9079 112.876 17.4084C112.409 17.8754 112.175 18.4759 112.175 19.21V31.5205C112.175 34.2895 112.692 36.6248 113.727 38.5265C114.795 40.4281 116.23 41.8794 118.032 42.8802Z"
          fill="white"/>
</svg>
