<svg width="80" height="80" viewBox="0 0 80 80" fill="none" xmlns="http://www.w3.org/2000/svg">
    <path d="M31.75 13.875C32.5094 13.875 33.125 13.2594 33.125 12.5C33.125 11.7406 32.5094 11.125 31.75 11.125C30.9906 11.125 30.375 11.7406 30.375 12.5C30.375 13.2594 30.9906 13.875 31.75 13.875Z" fill="#3BC199"/>
    <path d="M15.5749 58.9076C15.1462 57.6009 14.7972 56.2692 14.5299 54.9201C11.2024 52.4467 8.44666 49.2855 6.45032 45.6517C4.45398 42.0178 3.26387 37.9965 2.96096 33.8615C2.65805 29.7264 3.24946 25.5746 4.69493 21.6886C6.14041 17.8026 8.40604 14.2736 11.3377 11.3417C14.2693 8.40976 17.7981 6.14377 21.6839 4.69789C25.5698 3.25202 29.7215 2.66019 33.8566 2.96267C37.9917 3.26516 42.0131 4.45487 45.6472 6.45084C49.2812 8.44681 52.4427 11.2022 54.9165 14.5295C56.2656 14.7968 57.5972 15.1457 58.9039 15.5745C56.4428 11.4363 53.069 7.91483 49.0398 5.27888C45.0107 2.64293 40.4327 0.962115 35.6551 0.364657C30.8775 -0.232801 26.0266 0.26889 21.4724 1.83145C16.9182 3.39402 12.781 5.97617 9.37663 9.38091C5.97222 12.7856 3.39046 16.923 1.82833 21.4774C0.266195 26.0317 -0.235034 30.8827 0.362879 35.6602C0.960792 40.4377 2.64205 45.0156 5.27838 49.0445C7.91471 53.0734 11.4365 56.4469 15.5749 58.9076Z" fill="#3BC199"/>
    <path d="M12.5 33.125C13.2594 33.125 13.875 32.5094 13.875 31.75C13.875 30.9906 13.2594 30.375 12.5 30.375C11.7406 30.375 11.125 30.9906 11.125 31.75C11.125 32.5094 11.7406 33.125 12.5 33.125Z" fill="#3BC199"/>
    <path d="M19.375 20.75C20.1344 20.75 20.75 20.1344 20.75 19.375C20.75 18.6156 20.1344 18 19.375 18C18.6156 18 18 18.6156 18 19.375C18 20.1344 18.6156 20.75 19.375 20.75Z" fill="#3BC199"/>
    <path d="M50.8974 13.9864C48.5152 11.3846 45.6308 9.29215 42.4181 7.83528C39.2053 6.37842 35.7308 5.58729 32.2041 5.50962C28.6773 5.43194 25.1713 6.06931 21.8975 7.38331C18.6238 8.69731 15.65 10.6607 13.1556 13.1551C10.6612 15.6495 8.69781 18.6233 7.38381 21.897C6.06982 25.1708 5.43244 28.6768 5.51012 32.2036C5.5878 35.7303 6.37892 39.2048 7.83579 42.4176C9.29265 45.6303 11.3851 48.5147 13.9869 50.8969C13.9209 50.0224 13.8755 49.141 13.8755 48.25C13.8708 43.0053 15.0738 37.8299 17.3914 33.125H16.3725C16.0482 34.0424 15.4099 34.8157 14.5706 35.308C13.7313 35.8004 12.7449 35.9802 11.7859 35.8156C10.8268 35.6511 9.95682 35.1528 9.32963 34.4088C8.70243 33.6648 8.35844 32.7231 8.35844 31.75C8.35844 30.7769 8.70243 29.8352 9.32963 29.0912C9.95682 28.3473 10.8268 27.849 11.7859 27.6844C12.7449 27.5199 13.7313 27.6997 14.5706 28.192C15.4099 28.6844 16.0482 29.4576 16.3725 30.375H18.8998C19.48 29.4281 20.1034 28.5114 20.7698 27.625H19.3755C19.0108 27.625 18.6611 27.4802 18.4032 27.2223C18.1454 26.9644 18.0005 26.6147 18.0005 26.25V23.247C17.0831 22.9227 16.3099 22.2844 15.8175 21.4451C15.3252 20.6058 15.1454 19.6194 15.3099 18.6604C15.4745 17.7013 15.9728 16.8313 16.7167 16.2041C17.4607 15.5769 18.4025 15.2329 19.3755 15.2329C20.3486 15.2329 21.2903 15.5769 22.0343 16.2041C22.7783 16.8313 23.2766 17.7013 23.4411 18.6604C23.6057 19.6194 23.4259 20.6058 22.9335 21.4451C22.4412 22.2844 21.6679 22.9227 20.7505 23.247V24.875H23.077C25.226 22.5596 27.6816 20.5491 30.3755 18.8993V16.372C29.4581 16.0477 28.6849 15.4094 28.1925 14.5701C27.7002 13.7308 27.5204 12.7444 27.6849 11.7854C27.8495 10.8263 28.3478 9.95632 29.0917 9.32912C29.8357 8.70193 30.7775 8.35793 31.7505 8.35793C32.7236 8.35793 33.6653 8.70193 34.4093 9.32912C35.1533 9.95632 35.6516 10.8263 35.8161 11.7854C35.9807 12.7444 35.8009 13.7308 35.3085 14.5701C34.8162 15.4094 34.0429 16.0477 33.1255 16.372V17.3909C37.8304 15.0733 43.0058 13.8703 48.2505 13.875C49.1415 13.875 50.0229 13.9204 50.8974 13.9864Z" fill="#3BC199"/>
    <path d="M48.2499 22.125C43.0829 22.125 38.0319 23.6572 33.7356 26.5279C29.4394 29.3985 26.0909 33.4787 24.1135 38.2524C22.1362 43.0261 21.6188 48.279 22.6269 53.3467C23.6349 58.4145 26.1231 63.0695 29.7767 66.7232C33.4304 70.3768 38.0854 72.865 43.1532 73.873C48.2209 74.8811 53.4738 74.3637 58.2475 72.3864C63.0212 70.409 67.1014 67.0605 69.972 62.7643C72.8427 58.468 74.3749 53.417 74.3749 48.25C74.3672 41.3236 71.6123 34.683 66.7146 29.7853C61.8169 24.8875 55.1763 22.1326 48.2499 22.125ZM48.2499 46.875C50.3102 46.8869 52.2914 47.6693 53.8039 49.0683C55.3165 50.4672 56.2508 52.3815 56.4232 54.4346C56.5956 56.4877 55.9935 58.5309 54.7354 60.1625C53.4774 61.7941 51.6543 62.8959 49.6249 63.2513V66.125C49.6249 66.4897 49.48 66.8394 49.2222 67.0973C48.9643 67.3551 48.6146 67.5 48.2499 67.5C47.8852 67.5 47.5355 67.3551 47.2776 67.0973C47.0198 66.8394 46.8749 66.4897 46.8749 66.125V63.2513C44.9546 62.925 43.2115 61.9305 41.9535 60.4435C40.6955 58.9566 40.0035 57.0728 39.9999 55.125H42.7499C42.7499 56.2128 43.0725 57.2762 43.6768 58.1806C44.2812 59.0851 45.1401 59.7901 46.1451 60.2063C47.1501 60.6226 48.256 60.7315 49.3229 60.5193C50.3898 60.3071 51.3698 59.7833 52.139 59.0141C52.9082 58.2449 53.432 57.2649 53.6442 56.198C53.8564 55.1311 53.7475 54.0252 53.3312 53.0202C52.9149 52.0152 52.21 51.1563 51.3055 50.5519C50.4011 49.9476 49.3377 49.625 48.2499 49.625C46.1896 49.6131 44.2084 48.8307 42.6959 47.4317C41.1833 46.0328 40.249 44.1185 40.0766 42.0654C39.9042 40.0123 40.5063 37.9691 41.7643 36.3375C43.0224 34.7059 44.8455 33.6041 46.8749 33.2488V30.375C46.8749 30.0103 47.0198 29.6606 47.2776 29.4027C47.5355 29.1449 47.8852 29 48.2499 29C48.6146 29 48.9643 29.1449 49.2222 29.4027C49.48 29.6606 49.6249 30.0103 49.6249 30.375V33.2488C51.5451 33.575 53.2883 34.5695 54.5463 36.0565C55.8043 37.5434 56.4963 39.4272 56.4999 41.375H53.7499C53.7499 40.2872 53.4273 39.2238 52.823 38.3194C52.2186 37.4149 51.3596 36.7099 50.3546 36.2937C49.3497 35.8774 48.2438 35.7685 47.1769 35.9807C46.11 36.1929 45.13 36.7167 44.3608 37.4859C43.5916 38.2551 43.0678 39.2351 42.8556 40.302C42.6434 41.3689 42.7523 42.4748 43.1686 43.4798C43.5848 44.4848 44.2898 45.3437 45.1943 45.9481C46.0987 46.5524 47.1621 46.875 48.2499 46.875Z" fill="#3BC199"/>
    <path d="M48.2499 16.625C41.9951 16.625 35.8807 18.4798 30.68 21.9548C25.4793 25.4298 21.4258 30.3689 19.0322 36.1476C16.6386 41.9263 16.0123 48.2851 17.2326 54.4197C18.4528 60.5544 21.4648 66.1894 25.8876 70.6122C30.3105 75.0351 35.9455 78.0471 42.0802 79.2673C48.2148 80.4876 54.5735 79.8613 60.3523 77.4677C66.131 75.0741 71.0701 71.0206 74.5451 65.8199C78.0201 60.6192 79.8749 54.5048 79.8749 48.25C79.8658 39.8653 76.531 31.8267 70.6021 25.8978C64.6732 19.9689 56.6346 16.6341 48.2499 16.625ZM48.2499 77.125C42.539 77.125 36.9563 75.4315 32.2078 72.2587C27.4593 69.0859 23.7584 64.5762 21.5729 59.3C19.3874 54.0238 18.8156 48.218 19.9297 42.6168C21.0439 37.0156 23.7939 31.8705 27.8322 27.8323C31.8704 23.794 37.0155 21.044 42.6167 19.9298C48.2179 18.8157 54.0237 19.3875 59.2999 21.573C64.5761 23.7585 69.0857 27.4594 72.2586 32.2079C75.4314 36.9564 77.1249 42.5391 77.1249 48.25C77.1162 55.9054 74.0712 63.2448 68.658 68.6581C63.2447 74.0713 55.9053 77.1163 48.2499 77.125Z" fill="#3BC199"/>
</svg>
