<svg width="88" height="88" viewBox="0 0 88 88" fill="none" xmlns="http://www.w3.org/2000/svg">
    <path d="M52.2496 20.625C45.9948 20.625 39.8804 22.4798 34.6797 25.9548C29.479 29.4298 25.4256 34.3689 23.032 40.1477C20.6383 45.9264 20.0121 52.2851 21.2323 58.4197C22.4526 64.5544 25.4646 70.1894 29.8874 74.6123C34.3102 79.0351 39.9453 82.0471 46.0799 83.2673C52.2146 84.4876 58.5733 83.8613 64.352 81.4677C70.1307 79.0741 75.0699 75.0206 78.5449 69.8199C82.0199 64.6192 83.8747 58.5048 83.8747 52.25C83.8656 43.8653 80.5307 35.8267 74.6019 29.8978C68.673 23.9689 60.6343 20.6341 52.2496 20.625ZM52.2496 81.125C46.5387 81.125 40.956 79.4315 36.2076 76.2587C31.4591 73.0859 27.7581 68.5762 25.5726 63.3C23.3871 58.0238 22.8153 52.218 23.9295 46.6168C25.0436 41.0156 27.7937 35.8705 31.8319 31.8323C35.8702 27.7941 41.0152 25.044 46.6164 23.9298C52.2176 22.8157 58.0234 23.3875 63.2996 25.573C68.5758 27.7585 73.0855 31.4595 76.2583 36.2079C79.4312 40.9564 81.1247 46.5391 81.1247 52.25C81.1159 59.9055 78.0709 67.2449 72.6577 72.6581C67.2445 78.0713 59.9051 81.1163 52.2496 81.125Z" fill="#3BC199"/>
    <path d="M52.2499 26.125C47.0829 26.125 42.0319 27.6572 37.7356 30.5279C33.4394 33.3985 30.0909 37.4787 28.1135 42.2524C26.1362 47.0261 25.6188 52.279 26.6269 57.3467C27.6349 62.4145 30.1231 67.0695 33.7767 70.7232C37.4304 74.3768 42.0854 76.865 47.1532 77.873C52.2209 78.8811 57.4738 78.3637 62.2475 76.3864C67.0212 74.409 71.1014 71.0605 73.972 66.7643C76.8427 62.468 78.3749 57.417 78.3749 52.25C78.3672 45.3236 75.6123 38.683 70.7146 33.7853C65.8169 28.8875 59.1763 26.1326 52.2499 26.125ZM52.9374 70.125C52.5295 70.125 52.1307 70.004 51.7915 69.7774C51.4523 69.5508 51.188 69.2287 51.0319 68.8518C50.8758 68.4749 50.8349 68.0602 50.9145 67.6601C50.9941 67.26 51.1905 66.8925 51.479 66.6041C51.7674 66.3156 52.1349 66.1192 52.535 66.0396C52.9351 65.9601 53.3498 66.0009 53.7267 66.157C54.1035 66.3131 54.4257 66.5775 54.6523 66.9166C54.8789 67.2558 54.9999 67.6546 54.9999 68.0625C54.9999 68.6095 54.7826 69.1341 54.3958 69.5209C54.009 69.9077 53.4844 70.125 52.9374 70.125ZM53.6249 60.5H51.7521C50.9448 60.4998 50.1551 60.7366 49.481 61.1809C48.8069 61.6253 48.278 62.2577 47.9599 62.9998L45.2635 69.2918C45.1575 69.539 44.9813 69.7498 44.7567 69.8979C44.5321 70.046 44.2689 70.125 43.9999 70.125C43.8507 70.1251 43.7025 70.1004 43.5613 70.0521C43.234 69.9418 42.9603 69.7124 42.7944 69.4095C42.6286 69.1066 42.5828 68.7524 42.6661 68.4172L48.1661 46.4172C48.2611 46.0709 48.4879 45.7754 48.7979 45.5941C49.1079 45.4127 49.4765 45.3598 49.825 45.4468C50.1735 45.5337 50.4741 45.7536 50.6626 46.0593C50.8511 46.365 50.9125 46.7324 50.8336 47.0828L47.8664 58.9518C49.0103 58.1675 50.3652 57.7485 51.7521 57.75H53.6249C55.8005 57.75 57.9272 57.1049 59.7362 55.8962C61.5451 54.6875 62.955 52.9695 63.7876 50.9595C64.6201 48.9495 64.838 46.7378 64.4135 44.604C63.9891 42.4702 62.9414 40.5102 61.4031 38.9718C59.8647 37.4334 57.9047 36.3858 55.7709 35.9614C53.6371 35.5369 51.4254 35.7548 49.4154 36.5873C47.4054 37.4199 45.6874 38.8298 44.4787 40.6387C43.27 42.4477 42.6249 44.5744 42.6249 46.75C42.6191 48.5046 43.038 50.2346 43.8459 51.7921C44.0136 52.116 44.0459 52.4932 43.9355 52.8408C43.8251 53.1884 43.5812 53.4779 43.2574 53.6456C42.9336 53.8134 42.5564 53.8456 42.2088 53.7352C41.8612 53.6249 41.5716 53.381 41.4039 53.0571C40.0282 50.3922 39.5616 47.3506 40.075 44.3959C40.5885 41.4411 42.0539 38.7353 44.248 36.6907C46.442 34.6461 49.2444 33.3749 52.228 33.0709C55.2115 32.7668 58.2127 33.4465 60.7741 35.0065C63.3355 36.5664 65.3166 38.921 66.4156 41.7115C67.5146 44.5019 67.6711 47.5751 66.8613 50.4627C66.0515 53.3504 64.3198 55.8941 61.9302 57.7062C59.5405 59.5182 56.6239 60.4994 53.6249 60.5Z" fill="#3BC199"/>
    <path d="M35.75 17.875C36.5094 17.875 37.125 17.2594 37.125 16.5C37.125 15.7406 36.5094 15.125 35.75 15.125C34.9906 15.125 34.375 15.7406 34.375 16.5C34.375 17.2594 34.9906 17.875 35.75 17.875Z" fill="#3BC199"/>
    <path d="M23.375 24.75C24.1344 24.75 24.75 24.1344 24.75 23.375C24.75 22.6156 24.1344 22 23.375 22C22.6156 22 22 22.6156 22 23.375C22 24.1344 22.6156 24.75 23.375 24.75Z" fill="#3BC199"/>
    <path d="M54.8978 17.9864C52.5156 15.3846 49.6312 13.2922 46.4184 11.8353C43.2057 10.3784 39.7312 9.58729 36.2044 9.50962C32.6776 9.43194 29.1717 10.0693 25.8979 11.3833C22.6241 12.6973 19.6504 14.6607 17.156 17.1551C14.6616 19.6495 12.6982 22.6233 11.3842 25.897C10.0702 29.1708 9.43281 32.6768 9.51049 36.2036C9.58816 39.7303 10.3793 43.2048 11.8362 46.4176C13.293 49.6303 15.3854 52.5147 17.9873 54.8969C17.9213 54.0224 17.8759 53.141 17.8759 52.25C17.8711 47.0053 19.0742 41.8299 21.3918 37.125H20.3729C20.0485 38.0424 19.4103 38.8157 18.571 39.308C17.7317 39.8004 16.7453 39.9802 15.7863 39.8156C14.8272 39.6511 13.9572 39.1528 13.33 38.4088C12.7028 37.6648 12.3588 36.7231 12.3588 35.75C12.3588 34.777 12.7028 33.8352 13.33 33.0912C13.9572 32.3473 14.8272 31.849 15.7863 31.6844C16.7453 31.5199 17.7317 31.6997 18.571 32.192C19.4103 32.6844 20.0485 33.4576 20.3729 34.375H22.9001C23.4804 33.4281 24.1037 32.5114 24.7701 31.625H23.3759C23.0112 31.625 22.6615 31.4802 22.4036 31.2223C22.1458 30.9644 22.0009 30.6147 22.0009 30.25V27.247C21.0835 26.9227 20.3103 26.2844 19.8179 25.4451C19.3255 24.6058 19.1457 23.6194 19.3103 22.6604C19.4748 21.7013 19.9731 20.8313 20.7171 20.2041C21.4611 19.5769 22.4028 19.2329 23.3759 19.2329C24.349 19.2329 25.2907 19.5769 26.0347 20.2041C26.7786 20.8313 27.2769 21.7013 27.4415 22.6604C27.606 23.6194 27.4262 24.6058 26.9339 25.4451C26.4415 26.2844 25.6683 26.9227 24.7509 27.247V28.875H27.0774C29.2264 26.5596 31.6819 24.5491 34.3759 22.8993V20.372C33.4585 20.0477 32.6852 19.4094 32.1929 18.5701C31.7005 17.7308 31.5207 16.7444 31.6853 15.7854C31.8498 14.8263 32.3481 13.9563 33.0921 13.3291C33.8361 12.7019 34.7778 12.3579 35.7509 12.3579C36.724 12.3579 37.6657 12.7019 38.4097 13.3291C39.1536 13.9563 39.6519 14.8263 39.8165 15.7854C39.981 16.7444 39.8012 17.7308 39.3089 18.5701C38.8165 19.4094 38.0433 20.0477 37.1259 20.372V21.3909C41.8308 19.0733 47.0062 17.8703 52.2509 17.875C53.1419 17.875 54.0233 17.9204 54.8978 17.9864Z" fill="#3BC199"/>
    <path d="M16.5 37.125C17.2594 37.125 17.875 36.5094 17.875 35.75C17.875 34.9906 17.2594 34.375 16.5 34.375C15.7406 34.375 15.125 34.9906 15.125 35.75C15.125 36.5094 15.7406 37.125 16.5 37.125Z" fill="#3BC199"/>
    <path d="M6.87606 35.75C6.87421 29.6791 8.78643 23.7621 12.3408 18.8405C15.8952 13.9188 20.9107 10.2431 26.6743 8.33591C32.4379 6.42873 38.656 6.38722 44.4446 8.21727C50.2331 10.0473 55.2973 13.6558 58.917 18.5295C60.2662 18.7968 61.5978 19.1457 62.9045 19.5745C60.4434 15.4363 57.0696 11.9148 53.0404 9.27889C49.0113 6.64294 44.4333 4.96211 39.6557 4.36466C34.8781 3.7672 30.0272 4.26889 25.473 5.83146C20.9188 7.39402 16.7817 9.97617 13.3772 13.3809C9.97282 16.7857 7.39107 20.923 5.82894 25.4774C4.26681 30.0317 3.76558 34.8827 4.36349 39.6602C4.9614 44.4378 6.64266 49.0156 9.27899 53.0445C11.9153 57.0734 15.4371 60.4469 19.5756 62.9077C19.1468 61.6009 18.7978 60.2693 18.5306 58.9202C14.9199 56.2304 11.9864 52.7356 9.96321 48.7134C7.94004 44.6911 6.88298 40.2524 6.87606 35.75Z" fill="#3BC199"/>
</svg>
