<svg width="77" height="78" viewBox="0 0 77 78" fill="none" xmlns="http://www.w3.org/2000/svg">
    <rect width="77" height="78" rx="38.5" fill="#3BC199"/>
    <path d="M58.56 25.2186C59.5103 23.601 59.2922 21.4814 57.9052 20.0945C56.5185 18.7076 54.3989 18.4895 52.7812 19.4397C30.6208 4.39497 4.39691 30.6229 19.4396 52.7813C18.4894 54.3989 18.7075 56.5185 20.0944 57.9054C21.4727 59.2836 23.5901 59.5167 25.2185 58.5601C47.3828 73.6062 73.6018 47.373 58.56 25.2186ZM38.9998 60.1075C34.5621 60.1075 30.4408 58.7298 27.0387 56.3812C27.5886 54.8839 27.2646 53.1352 26.0646 51.9351C24.8644 50.7349 23.1158 50.4109 21.6184 50.9609C8.67866 31.4941 31.5102 8.68328 50.9608 21.6186C50.4109 23.116 50.7349 24.8646 51.9351 26.0647C53.1302 27.2598 54.8742 27.5922 56.3813 27.0388C66.0155 40.7664 55.89 60.2058 38.9998 60.1075Z" fill="white"/>
    <path d="M49.6901 39.5666L49.1174 39.3422C46.1378 38.175 42.7706 38.7952 40.4068 40.9103V37.0485C46.3597 33.6699 45.8793 24.7073 39.5631 21.9985L38.9996 21.7522L38.4361 21.9985C32.1175 24.7089 31.6418 33.6716 37.5924 37.0486V40.9103C35.2285 38.7953 31.8616 38.1749 28.8816 39.3422L28.309 39.5666L28.0846 40.1393C25.6329 46.2652 31.0995 52.8384 37.5924 51.5015V57.293H40.4068V51.5015C46.9006 52.8387 52.3661 46.2634 49.9146 40.1393L49.6901 39.5666Z" fill="white"/>
</svg>
