<svg width="77" height="78" viewBox="0 0 77 78" fill="none" xmlns="http://www.w3.org/2000/svg">
    <rect width="77" height="78" rx="38.5" fill="#3BC199"/>
    <g clip-path="url(#clip0)">
        <path d="M62.9914 32.8666C62.9914 30.7367 62.1908 28.7061 60.7377 27.1493C60.2488 26.6253 60.169 26.5202 59.9617 26.3792C51.2565 20.4576 26.7379 20.4554 18.0338 26.381C17.7833 26.5517 17.6903 26.6974 17.2593 27.1493C15.8062 28.7061 15.0056 30.7367 15.0056 32.8666V35.8637C15.0056 36.8532 15.3327 38.0448 16.4298 39.2552C14.4281 42.2295 15.1679 44.8802 15.0056 46.9229C15.0056 48.9323 16.3518 51.7763 22.7657 53.9142C36.6806 58.5527 62.9914 55.9423 62.9914 46.9229C62.8299 44.8904 63.5769 42.2413 61.5672 39.2552C62.6643 38.0448 62.9914 36.8528 62.9914 35.8633V32.8666ZM18.7545 35.8637V32.8666C18.7545 31.9625 19.0164 31.0912 19.5016 30.346C28.7774 35.1174 49.2152 35.121 58.495 30.3449C58.9803 31.0905 59.2425 31.9621 59.2425 32.8666V35.8637C59.2425 36.4526 58.1563 37.9284 54.0459 39.2988C45.7838 42.0527 32.2113 42.0519 23.9514 39.2988C19.8407 37.9284 18.7545 36.4526 18.7545 35.8637ZM54.6418 27.9363C46.4394 30.8858 31.8275 30.962 23.3545 27.9246C31.5573 24.9748 46.1684 24.899 54.6418 27.9363ZM59.2425 46.9229C59.2425 47.5118 58.1563 48.9876 54.0459 50.358C45.7838 53.1119 32.2113 53.1111 23.9514 50.358C19.8407 48.9876 18.7545 47.5118 18.7545 46.9229V43.9258C18.7545 43.0513 18.9992 42.2076 19.4544 41.4781C28.699 46.3194 49.3064 46.3154 58.543 41.4781C58.9978 42.2072 59.2428 43.0513 59.2428 43.9258V46.9229H59.2425Z" fill="white"/>
    </g>
    <defs>
        <clipPath id="clip0">
            <rect width="48" height="48" fill="white" transform="translate(15 15)"/>
        </clipPath>
    </defs>
</svg>
