<svg width="16" height="4" viewBox="0 0 16 4" fill="none" xmlns="http://www.w3.org/2000/svg">
    <path d="M8.09488 2.86541C8.57282 2.86541 8.96026 2.47797 8.96026 2.00003C8.96026 1.52209 8.57282 1.13464 8.09488 1.13464C7.61694 1.13464 7.22949 1.52209 7.22949 2.00003C7.22949 2.47797 7.61694 2.86541 8.09488 2.86541Z"
          fill="#5B7083" stroke="#5B7083" stroke-width="1.15385" stroke-linecap="round" stroke-linejoin="round"/>
    <path d="M14.1525 2.86541C14.6304 2.86541 15.0179 2.47797 15.0179 2.00003C15.0179 1.52209 14.6304 1.13464 14.1525 1.13464C13.6746 1.13464 13.2871 1.52209 13.2871 2.00003C13.2871 2.47797 13.6746 2.86541 14.1525 2.86541Z"
          fill="#5B7083" stroke="#5B7083" stroke-width="1.15385" stroke-linecap="round" stroke-linejoin="round"/>
    <path d="M2.03714 2.86541C2.51508 2.86541 2.90252 2.47797 2.90252 2.00003C2.90252 1.52209 2.51508 1.13464 2.03714 1.13464C1.5592 1.13464 1.17175 1.52209 1.17175 2.00003C1.17175 2.47797 1.5592 2.86541 2.03714 2.86541Z"
          fill="#5B7083" stroke="#5B7083" stroke-width="1.15385" stroke-linecap="round" stroke-linejoin="round"/>
</svg>
