<svg width="140" height="44" viewBox="0 0 140 44" fill="none" xmlns="http://www.w3.org/2000/svg">
    <path d="M15.9606 6.19883C15.9606 4.10927 17.6605 2.4093 19.7501 2.4093C20.7625 2.4093 21.7143 2.80354 22.4299 3.51907C23.1454 4.23461 23.5396 5.18645 23.5396 6.19883V9.61779L25.9489 8.22631V6.19883C25.9489 4.54271 25.304 2.98592 24.1337 1.81522C22.963 0.644523 21.4066 0 19.7505 0C16.3323 0 13.5517 2.78065 13.5517 6.19883V19.7606L23.54 25.5279V37.4895C23.54 39.579 21.8401 41.279 19.7505 41.279C18.7377 41.279 17.7859 40.8847 17.0703 40.1692C16.3548 39.4537 15.9606 38.5018 15.9606 37.4895V34.0713L13.5513 35.4616V37.4895C13.5513 39.146 14.1966 40.7028 15.3677 41.8727C16.5384 43.0434 18.0948 43.6879 19.7501 43.6879C23.1683 43.6879 25.9489 40.9073 25.9489 37.4891V23.9292L15.9606 18.1623V6.19883Z"
          fill="#3BC199"/>
    <path d="M36.3998 24.2992L27.2441 19.013L33.9478 15.1423C34.3471 14.9111 34.5954 14.4815 34.5954 14.0213C34.5954 13.7955 34.5353 13.572 34.4212 13.3749C34.2481 13.0749 33.9691 12.8607 33.6354 12.7715C33.3017 12.6818 32.9529 12.7272 32.6533 12.9003L22.2458 18.9094L35.1949 26.3852C36.0715 26.8908 36.6989 27.7088 36.9609 28.6878C37.2228 29.666 37.0877 30.6874 36.5802 31.5639C35.9062 32.7311 34.6486 33.4564 33.2982 33.4564C32.6362 33.4564 31.9828 33.2814 31.4081 32.9504L28.4447 31.2395V34.0217L30.2056 35.0372C31.1454 35.5793 32.2148 35.8657 33.2986 35.8657C35.5061 35.8657 37.5631 34.6798 38.6666 32.7707C38.7703 32.5918 38.8653 32.4075 38.9495 32.222V32.2216C39.0337 32.0369 39.1094 31.8464 39.1746 31.6551C39.2076 31.5589 39.2374 31.4626 39.2654 31.3656C39.4322 30.784 39.5118 30.1821 39.5017 29.5772C39.4935 29.0693 39.4222 28.5602 39.2894 28.0642C38.8607 26.4636 37.8343 25.1264 36.3998 24.2992Z"
          fill="#3BC199"/>
    <path d="M21.0448 6.19878C21.0448 5.85304 20.9101 5.52786 20.6657 5.2834C20.4212 5.03894 20.096 4.9043 19.7503 4.9043C19.0363 4.9043 18.4558 5.48518 18.4558 6.19878V16.7211L19.7503 17.4677L31.4045 10.7399C31.9819 10.4074 32.6365 10.2312 33.2977 10.2312C34.6488 10.2312 35.9072 10.958 36.5812 12.1283C36.9138 12.7026 37.0896 13.3572 37.0896 14.0211C37.0896 15.3696 36.3647 16.626 35.1979 17.3012L32.2333 19.0132L34.6426 20.4039L36.4047 19.3869C38.313 18.2814 39.4985 16.2252 39.4985 14.0215C39.4985 12.9343 39.2113 11.8633 38.6677 10.9242C37.5641 9.01124 35.5064 7.82269 33.2969 7.82269C32.2131 7.82269 31.1418 8.11023 30.1993 8.65386L21.044 13.9393V6.19878H21.0448Z"
          fill="url(#paint0_linear)"/>
    <path d="M0.784172 17.04C0.859451 17.1754 0.944819 17.3147 1.04571 17.4657C1.29017 17.8328 1.57149 18.1711 1.88192 18.4711C2.24667 18.8238 2.65682 19.1327 3.10151 19.3892L12.2568 24.6753L5.55349 28.546C5.1542 28.7772 4.90625 29.2068 4.90625 29.667C4.90625 29.8928 4.9664 30.1163 5.08048 30.3135C5.31097 30.7127 5.74169 30.9611 6.20422 30.9611C6.42967 30.9611 6.6524 30.9013 6.84836 30.7884L17.2543 24.7801L4.30635 17.3031C3.42901 16.7963 2.80156 15.9783 2.54002 15.0005C2.27927 14.0219 2.41508 13.0006 2.92185 12.1244C3.59664 10.9568 4.85387 10.2316 6.20306 10.2316C6.86582 10.2316 7.52004 10.407 8.09472 10.7391L11.0566 12.45V9.66775L9.29801 8.65072C8.3582 8.10863 7.288 7.82227 6.20306 7.82227C3.99515 7.82227 1.93857 9.00848 0.836169 10.9172C0.00616508 12.3514 -0.215014 14.0227 0.213375 15.6233C0.346083 16.12 0.538159 16.5965 0.784172 17.04Z"
          fill="#3BC199"/>
    <path d="M6.20327 12.7266C5.74151 12.7266 5.31157 12.9745 5.08108 13.3742C4.90802 13.6738 4.86145 14.0222 4.95109 14.3559C5.04034 14.69 5.25453 14.9694 5.55448 15.1425L11.0572 18.3201V15.3299L6.84857 12.8996C6.65145 12.7863 6.42833 12.7266 6.20327 12.7266Z"
          fill="url(#paint1_linear)"/>
    <path d="M18.4558 37.4899C18.4558 37.8356 18.5905 38.1608 18.8349 38.4053C19.0794 38.6497 19.4045 38.7844 19.7507 38.7844C20.4643 38.7844 21.0452 38.2035 21.0452 37.4899V26.9684L19.7511 26.2206L19.7483 26.2218L8.09725 32.9495C7.52102 33.2817 6.86641 33.4571 6.20404 33.4571C4.8529 33.4571 3.59412 32.7311 2.91933 31.5619C2.58679 30.9849 2.41101 30.3299 2.41101 29.6675C2.41101 28.3199 3.13624 27.063 4.30384 26.3879L7.26725 24.6766L4.85795 23.2852L3.09666 24.3018C1.18754 25.4077 0.00170898 27.4639 0.00170898 29.6675C0.00170898 30.754 0.288855 31.825 0.83249 32.7652C1.93683 34.6782 3.99496 35.8664 6.20404 35.8664C7.2882 35.8664 8.35917 35.5792 9.30171 35.0356L18.4558 29.7498V37.4899Z"
          fill="url(#paint2_linear)"/>
    <path d="M33.2979 30.9616C33.7592 30.9616 34.1892 30.7136 34.4201 30.314C34.5931 30.0144 34.6393 29.6659 34.55 29.3322C34.4608 28.9981 34.2466 28.7187 33.947 28.5461L28.4443 25.3696V28.3583L32.6529 30.7881C32.8489 30.9014 33.072 30.9616 33.2979 30.9616Z"
          fill="url(#paint3_linear)"/>
    <path d="M58.2091 31.1082C57.9089 31.1082 57.6561 31.0055 57.4507 30.8001C57.2453 30.5947 57.1426 30.3419 57.1426 30.0416V15.6548C57.1426 15.3546 57.2453 15.1018 57.4507 14.8964C57.6561 14.6752 57.9089 14.5646 58.2091 14.5646H67.7134C67.9979 14.5646 68.2349 14.6673 68.4245 14.8727C68.6299 15.0623 68.7326 15.2993 68.7326 15.5837C68.7326 15.8681 68.6299 16.1051 68.4245 16.2948C68.2349 16.4844 67.9979 16.5792 67.7134 16.5792H59.2994V21.8172H66.8602C67.1446 21.8172 67.3816 21.9199 67.5712 22.1253C67.7767 22.3149 67.8794 22.552 67.8794 22.8364C67.8794 23.1208 67.7767 23.3578 67.5712 23.5474C67.3816 23.737 67.1446 23.8318 66.8602 23.8318H59.2994V29.0936H67.7134C67.9979 29.0936 68.2349 29.1963 68.4245 29.4017C68.6299 29.5913 68.7326 29.8283 68.7326 30.1127C68.7326 30.3972 68.6299 30.6342 68.4245 30.8238C68.2349 31.0134 67.9979 31.1082 67.7134 31.1082H58.2091Z"
          fill="#05022C"/>
    <path d="M82.2827 31.2267C81.9824 31.2267 81.7217 31.124 81.5005 30.9186C81.2951 30.7132 81.1924 30.4604 81.1924 30.1601V24.1163L75.5277 16.1763C75.4013 15.9708 75.3381 15.7575 75.3381 15.5363C75.3381 15.2361 75.4329 14.9833 75.6225 14.7779C75.8279 14.5567 76.0808 14.446 76.381 14.446C76.776 14.446 77.092 14.6278 77.329 14.9912L82.2827 22.1964L87.2363 14.9912C87.4733 14.6278 87.7893 14.446 88.1843 14.446C88.4845 14.446 88.7374 14.5567 88.9428 14.7779C89.1482 14.9833 89.243 15.2361 89.2272 15.5363C89.2272 15.7575 89.164 15.9708 89.0376 16.1763L83.3492 24.1163V30.1601C83.3492 30.4604 83.2465 30.7132 83.0411 30.9186C82.8357 31.124 82.5829 31.2267 82.2827 31.2267Z"
          fill="#05022C"/>
    <path d="M101.586 31.2267C101.27 31.2267 100.986 31.1398 100.733 30.966C100.496 30.7764 100.314 30.5078 100.188 30.1601L95.5422 15.8918C95.4948 15.718 95.4711 15.5837 95.4711 15.4889C95.4553 15.1887 95.5422 14.9438 95.7318 14.7542C95.9372 14.5488 96.1979 14.446 96.5139 14.446C96.7667 14.446 96.9879 14.525 97.1776 14.6831C97.3672 14.8411 97.5015 15.0465 97.5805 15.2993L101.562 28.3825L105.568 15.3467C105.647 15.0781 105.797 14.8648 106.018 14.7068C106.255 14.533 106.516 14.446 106.8 14.446C107.085 14.446 107.338 14.533 107.559 14.7068C107.796 14.8648 107.954 15.0781 108.033 15.3467L112.038 28.3825L116.02 15.2993C116.099 15.0465 116.234 14.8411 116.423 14.6831C116.613 14.525 116.834 14.446 117.087 14.446C117.403 14.446 117.656 14.5488 117.845 14.7542C118.051 14.9438 118.145 15.1887 118.13 15.4889C118.13 15.5837 118.106 15.718 118.059 15.8918L113.413 30.1601C113.287 30.5078 113.097 30.7764 112.844 30.966C112.607 31.1398 112.331 31.2267 112.015 31.2267C111.699 31.2267 111.406 31.1319 111.138 30.9423C110.885 30.7369 110.711 30.4762 110.616 30.1601L106.8 18.0724L102.984 30.1601C102.89 30.4762 102.708 30.7369 102.439 30.9423C102.186 31.1319 101.902 31.2267 101.586 31.2267Z"
          fill="#05022C"/>
    <path d="M125.755 31.2267C125.439 31.2267 125.179 31.124 124.973 30.9186C124.784 30.7132 124.689 30.4604 124.689 30.1601C124.689 30.0337 124.728 29.8757 124.807 29.6861L130.851 15.4178C130.978 15.1334 131.152 14.9043 131.373 14.7305C131.61 14.5409 131.894 14.446 132.226 14.446H132.463C132.795 14.446 133.071 14.5409 133.293 14.7305C133.53 14.9043 133.711 15.1334 133.838 15.4178L139.882 29.6861C139.961 29.8757 140 30.0337 140 30.1601C140 30.4604 139.897 30.7132 139.692 30.9186C139.502 31.124 139.25 31.2267 138.934 31.2267C138.712 31.2267 138.507 31.1714 138.317 31.0608C138.143 30.9344 138.009 30.7685 137.914 30.5631L136.374 26.8656H128.315L126.775 30.5631C126.68 30.7685 126.538 30.9344 126.348 31.0608C126.174 31.1714 125.977 31.2267 125.755 31.2267ZM129.145 24.8984H135.544L132.344 17.1954L129.145 24.8984Z"
          fill="#05022C"/>
    <defs>
        <linearGradient id="paint0_linear" x1="20.6895" y1="26.8541" x2="25.0142" y2="2.86119"
                        gradientUnits="userSpaceOnUse">
            <stop stop-color="#913AFF"/>
            <stop offset="1" stop-color="#8D4BF9"/>
        </linearGradient>
        <linearGradient id="paint1_linear" x1="5.5594" y1="20.6478" x2="7.45502" y2="12.1298"
                        gradientUnits="userSpaceOnUse">
            <stop stop-color="#913AFF"/>
            <stop offset="1" stop-color="#8D4BF9"/>
        </linearGradient>
        <linearGradient id="paint2_linear" x1="2.23552" y1="45.2344" x2="6.55984" y2="21.242"
                        gradientUnits="userSpaceOnUse">
            <stop stop-color="#913AFF"/>
            <stop offset="1" stop-color="#8D4BF9"/>
        </linearGradient>
        <linearGradient id="paint3_linear" x1="29.0972" y1="33.2887" x2="30.992" y2="24.7729"
                        gradientUnits="userSpaceOnUse">
            <stop stop-color="#913AFF"/>
            <stop offset="1" stop-color="#8D4BF9"/>
        </linearGradient>
    </defs>
</svg>
