<svg width="88" height="88" viewBox="0 0 88 88" fill="none" xmlns="http://www.w3.org/2000/svg">
    <path d="M16.5 37.125C17.2594 37.125 17.875 36.5094 17.875 35.75C17.875 34.9906 17.2594 34.375 16.5 34.375C15.7406 34.375 15.125 34.9906 15.125 35.75C15.125 36.5094 15.7406 37.125 16.5 37.125Z" fill="#3BC199"/>
    <path d="M51.2775 38.9029C51.5353 38.6451 51.885 38.5003 52.2496 38.5003C52.6142 38.5003 52.9639 38.6451 53.2217 38.9029L60.4996 46.1808L64.0554 42.625L52.2496 30.8192L40.4438 42.625L43.9996 46.1808L51.2775 38.9029Z" fill="#3BC199"/>
    <path d="M48.6832 52.25L52.2388 48.6944L55.7944 52.25L52.2388 55.8056L48.6832 52.25Z" fill="#3BC199"/>
    <path d="M6.87545 35.75C6.8736 29.6791 8.78582 23.7621 12.3402 18.8405C15.8946 13.9188 20.9101 10.2431 26.6737 8.33591C32.4373 6.42873 38.6554 6.38722 44.444 8.21727C50.2325 10.0473 55.2967 13.6558 58.9165 18.5295C60.2656 18.7968 61.5972 19.1457 62.9039 19.5745C60.4428 15.4363 57.069 11.9148 53.0398 9.27888C49.0107 6.64293 44.4327 4.96211 39.6551 4.36466C34.8775 3.7672 30.0266 4.26889 25.4724 5.83145C20.9182 7.39402 16.781 9.97617 13.3766 13.3809C9.97222 16.7856 7.39046 20.923 5.82833 25.4774C4.2662 30.0317 3.76497 34.8827 4.36288 39.6602C4.96079 44.4377 6.64205 49.0156 9.27838 53.0445C11.9147 57.0734 15.4365 60.4469 19.5749 62.9076C19.1462 61.6009 18.7972 60.2692 18.5299 58.9201C14.9194 56.2303 11.986 52.7354 9.96289 48.7132C7.93974 44.691 6.88259 40.2524 6.87545 35.75Z" fill="#3BC199"/>
    <path d="M30.8097 52.2486L34.3653 48.693L37.9209 52.2486L34.3653 55.8042L30.8097 52.2486Z" fill="#3BC199"/>
    <path d="M35.75 17.875C36.5094 17.875 37.125 17.2594 37.125 16.5C37.125 15.7406 36.5094 15.125 35.75 15.125C34.9906 15.125 34.375 15.7406 34.375 16.5C34.375 17.2594 34.9906 17.875 35.75 17.875Z" fill="#3BC199"/>
    <path d="M54.899 17.9878C52.5168 15.3859 49.6324 13.2935 46.4197 11.8367C43.2069 10.3798 39.7324 9.58867 36.2056 9.51099C32.6789 9.43331 29.1729 10.0707 25.8991 11.3847C22.6254 12.6987 19.6516 14.6621 17.1572 17.1565C14.6628 19.6509 12.6994 22.6246 11.3854 25.8984C10.0714 29.1722 9.43403 32.6782 9.51171 36.2049C9.58938 39.7317 10.3805 43.2062 11.8374 46.419C13.2942 49.6317 15.3867 52.5161 17.9885 54.8983C17.9211 54.0224 17.8757 53.1424 17.8757 52.25C17.871 47.0053 19.074 41.8299 21.3916 37.125H20.3727C20.0484 38.0424 19.4101 38.8157 18.5708 39.308C17.7315 39.8004 16.7452 39.9802 15.7861 39.8156C14.827 39.6511 13.957 39.1528 13.3298 38.4088C12.7026 37.6648 12.3586 36.7231 12.3586 35.75C12.3586 34.7769 12.7026 33.8352 13.3298 33.0912C13.957 32.3473 14.827 31.849 15.7861 31.6844C16.7452 31.5199 17.7315 31.6997 18.5708 32.192C19.4101 32.6844 20.0484 33.4576 20.3727 34.375H22.9C23.4802 33.4281 24.1036 32.5114 24.77 31.625H23.3757C23.0111 31.625 22.6613 31.4802 22.4035 31.2223C22.1456 30.9644 22.0007 30.6147 22.0007 30.25V27.247C21.0833 26.9227 20.3101 26.2844 19.8177 25.4451C19.3254 24.6058 19.1456 23.6194 19.3101 22.6604C19.4747 21.7013 19.973 20.8313 20.717 20.2041C21.4609 19.5769 22.4027 19.2329 23.3757 19.2329C24.3488 19.2329 25.2905 19.5769 26.0345 20.2041C26.7785 20.8313 27.2768 21.7013 27.4413 22.6604C27.6059 23.6194 27.4261 24.6058 26.9337 25.4451C26.4414 26.2844 25.6682 26.9227 24.7507 27.247V28.875H27.0772C29.2262 26.5596 31.6818 24.5491 34.3757 22.8993V20.372C33.4583 20.0477 32.6851 19.4094 32.1927 18.5701C31.7004 17.7308 31.5206 16.7444 31.6851 15.7854C31.8497 14.8263 32.348 13.9563 33.092 13.3291C33.8359 12.7019 34.7777 12.3579 35.7507 12.3579C36.7238 12.3579 37.6655 12.7019 38.4095 13.3291C39.1535 13.9563 39.6518 14.8263 39.8163 15.7854C39.9809 16.7444 39.8011 17.7308 39.3087 18.5701C38.8164 19.4094 38.0432 20.0477 37.1257 20.372V21.3909C41.8306 19.0733 47.006 17.8703 52.2507 17.875C53.1431 17.875 54.0231 17.9204 54.899 17.9878Z" fill="#3BC199"/>
    <path d="M23.375 24.75C24.1344 24.75 24.75 24.1344 24.75 23.375C24.75 22.6156 24.1344 22 23.375 22C22.6156 22 22 22.6156 22 23.375C22 24.1344 22.6156 24.75 23.375 24.75Z" fill="#3BC199"/>
    <path d="M52.25 26.125C47.083 26.125 42.032 27.6572 37.7357 30.5279C33.4395 33.3985 30.091 37.4787 28.1137 42.2524C26.1363 47.0261 25.619 52.279 26.627 57.3467C27.635 62.4145 30.1232 67.0695 33.7768 70.7232C37.4305 74.3768 42.0855 76.865 47.1533 77.873C52.221 78.8811 57.4739 78.3637 62.2476 76.3864C67.0213 74.409 71.1015 71.0605 73.9722 66.7643C76.8428 62.468 78.375 57.417 78.375 52.25C78.3674 45.3236 75.6125 38.683 70.7147 33.7853C65.817 28.8875 59.1764 26.1326 52.25 26.125ZM37.5279 41.6529L51.2779 27.9029C51.5357 27.6451 51.8854 27.5003 52.25 27.5003C52.6146 27.5003 52.9643 27.6451 53.2221 27.9029L66.9721 41.6529C67.2299 41.9107 67.3747 42.2604 67.3747 42.625C67.3747 42.9896 67.2299 43.3393 66.9721 43.5971L61.4721 49.0971C61.2143 49.3549 60.8646 49.4997 60.5 49.4997C60.1354 49.4997 59.7857 49.3549 59.5279 49.0971L52.25 41.8192L44.9721 49.0971C44.7143 49.3549 44.3646 49.4997 44 49.4997C43.6354 49.4997 43.2857 49.3549 43.0279 49.0971L37.5279 43.5971C37.2701 43.3393 37.1253 42.9896 37.1253 42.625C37.1253 42.2604 37.2701 41.9107 37.5279 41.6529ZM58.7221 53.2221L53.2221 58.7221C52.9643 58.9799 52.6146 59.1247 52.25 59.1247C51.8854 59.1247 51.5357 58.9799 51.2779 58.7221L45.7779 53.2221C45.5201 52.9643 45.3753 52.6146 45.3753 52.25C45.3753 51.8854 45.5201 51.5357 45.7779 51.2779L51.2779 45.7779C51.5357 45.5201 51.8854 45.3753 52.25 45.3753C52.6146 45.3753 52.9643 45.5201 53.2221 45.7779L58.7221 51.2779C58.9799 51.5357 59.1247 51.8854 59.1247 52.25C59.1247 52.6146 58.9799 52.9643 58.7221 53.2221ZM34.375 59.125C34.0104 59.1249 33.6607 58.98 33.4029 58.7221L27.9029 53.2221C27.6451 52.9643 27.5003 52.6146 27.5003 52.25C27.5003 51.8854 27.6451 51.5357 27.9029 51.2779L33.4029 45.7779C33.6607 45.5201 34.0104 45.3753 34.375 45.3753C34.7396 45.3753 35.0893 45.5201 35.3471 45.7779L40.8471 51.2779C41.1049 51.5357 41.2497 51.8854 41.2497 52.25C41.2497 52.6146 41.1049 52.9643 40.8471 53.2221L35.3471 58.7221C35.0893 58.98 34.7397 59.1249 34.375 59.125ZM66.9721 62.8471L53.2221 76.5971C52.9643 76.8549 52.6146 76.9997 52.25 76.9997C51.8854 76.9997 51.5357 76.8549 51.2779 76.5971L37.5279 62.8471C37.2701 62.5893 37.1253 62.2396 37.1253 61.875C37.1253 61.5104 37.2701 61.1607 37.5279 60.9029L43.0279 55.4029C43.2857 55.1451 43.6354 55.0003 44 55.0003C44.3646 55.0003 44.7143 55.1451 44.9721 55.4029L52.25 62.6807L59.5279 55.4029C59.7857 55.1451 60.1354 55.0003 60.5 55.0003C60.8646 55.0003 61.2143 55.1451 61.4721 55.4029L66.9721 60.9029C67.2299 61.1607 67.3747 61.5104 67.3747 61.875C67.3747 62.2396 67.2299 62.5893 66.9721 62.8471ZM71.0971 58.7221C70.8393 58.9799 70.4896 59.1247 70.125 59.1247C69.7604 59.1247 69.4107 58.9799 69.1529 58.7221L63.6529 53.2221C63.3951 52.9643 63.2503 52.6146 63.2503 52.25C63.2503 51.8854 63.3951 51.5357 63.6529 51.2779L69.1529 45.7779C69.4107 45.5201 69.7604 45.3753 70.125 45.3753C70.4896 45.3753 70.8393 45.5201 71.0971 45.7779L76.5971 51.2779C76.8549 51.5357 76.9997 51.8854 76.9997 52.25C76.9997 52.6146 76.8549 52.9643 76.5971 53.2221L71.0971 58.7221Z" fill="#3BC199"/>
    <path d="M52.2499 20.625C45.9951 20.625 39.8807 22.4798 34.68 25.9548C29.4793 29.4298 25.4258 34.3689 23.0322 40.1476C20.6386 45.9263 20.0123 52.2851 21.2326 58.4197C22.4528 64.5544 25.4648 70.1894 29.8876 74.6122C34.3105 79.0351 39.9455 82.0471 46.0802 83.2673C52.2148 84.4876 58.5735 83.8613 64.3523 81.4677C70.131 79.0741 75.0701 75.0206 78.5451 69.8199C82.0201 64.6192 83.8749 58.5048 83.8749 52.25C83.8654 43.8654 80.5305 35.827 74.6017 29.8982C68.6729 23.9694 60.6345 20.6345 52.2499 20.625ZM52.2499 81.125C46.539 81.125 40.9563 79.4315 36.2078 76.2587C31.4593 73.0859 27.7584 68.5762 25.5729 63.3C23.3874 58.0238 22.8156 52.218 23.9297 46.6168C25.0439 41.0156 27.7939 35.8705 31.8322 31.8323C35.8704 27.794 41.0155 25.044 46.6167 23.9298C52.2179 22.8157 58.0237 23.3875 63.2999 25.573C68.5761 27.7585 73.0858 31.4594 76.2586 36.2079C79.4314 40.9564 81.1249 46.5391 81.1249 52.25C81.1165 59.9056 78.0717 67.2452 72.6584 72.6585C67.2451 78.0718 59.9054 81.1166 52.2499 81.125Z" fill="#3BC199"/>
    <path d="M66.5552 52.2514L70.1108 48.6958L73.6664 52.2514L70.1108 55.807L66.5552 52.2514Z" fill="#3BC199"/>
    <path d="M53.2217 65.5971C52.9639 65.8549 52.6142 65.9997 52.2496 65.9997C51.885 65.9997 51.5353 65.8549 51.2775 65.5971L43.9996 58.3192L40.4438 61.875L52.2496 73.6807L64.0554 61.875L60.4996 58.3192L53.2217 65.5971Z" fill="#3BC199"/>
</svg>
